<mxfile host="app.diagrams.net" modified="2024-02-14T22:55:09.856Z" agent="Mozilla/5.0 (Windows NT 10.0; Win64; x64) AppleWebKit/537.36 (KHTML, like Gecko) Chrome/120.0.0.0 Safari/537.36 OPR/106.0.0.0" etag="4nFm2D9x29RFiFq7wgL9" version="23.1.4" type="device">
  <diagram id="C5RBs43oDa-KdzZeNtuy" name="Page-1">
    <mxGraphModel dx="1393" dy="766" grid="1" gridSize="10" guides="1" tooltips="1" connect="1" arrows="1" fold="1" page="1" pageScale="1" pageWidth="827" pageHeight="1169" math="0" shadow="0">
      <root>
        <mxCell id="WIyWlLk6GJQsqaUBKTNV-0" />
        <mxCell id="WIyWlLk6GJQsqaUBKTNV-1" parent="WIyWlLk6GJQsqaUBKTNV-0" />
        <mxCell id="wVOTAozZ5RD-RAOEWzSc-7" style="edgeStyle=none;rounded=0;orthogonalLoop=1;jettySize=auto;html=1;exitX=0.5;exitY=1;exitDx=0;exitDy=0;entryX=0.5;entryY=0;entryDx=0;entryDy=0;fillColor=#f8cecc;strokeColor=#b85450;" edge="1" parent="WIyWlLk6GJQsqaUBKTNV-1" source="wVOTAozZ5RD-RAOEWzSc-0" target="wVOTAozZ5RD-RAOEWzSc-15">
          <mxGeometry relative="1" as="geometry">
            <mxPoint x="460" y="190" as="targetPoint" />
          </mxGeometry>
        </mxCell>
        <mxCell id="wVOTAozZ5RD-RAOEWzSc-39" style="edgeStyle=none;rounded=0;orthogonalLoop=1;jettySize=auto;html=1;exitX=0;exitY=0.5;exitDx=0;exitDy=0;entryX=1;entryY=0.5;entryDx=0;entryDy=0;fillColor=#f8cecc;strokeColor=#b85450;" edge="1" parent="WIyWlLk6GJQsqaUBKTNV-1" source="wVOTAozZ5RD-RAOEWzSc-0" target="wVOTAozZ5RD-RAOEWzSc-19">
          <mxGeometry relative="1" as="geometry" />
        </mxCell>
        <mxCell id="wVOTAozZ5RD-RAOEWzSc-0" value="Splash Page" style="rounded=1;whiteSpace=wrap;html=1;arcSize=13;fillColor=#f8cecc;strokeColor=#b85450;" vertex="1" parent="WIyWlLk6GJQsqaUBKTNV-1">
          <mxGeometry x="400" y="80" width="120" height="60" as="geometry" />
        </mxCell>
        <mxCell id="wVOTAozZ5RD-RAOEWzSc-8" style="edgeStyle=none;rounded=0;orthogonalLoop=1;jettySize=auto;html=1;exitX=0.5;exitY=1;exitDx=0;exitDy=0;entryX=0.5;entryY=0;entryDx=0;entryDy=0;fillColor=#f8cecc;strokeColor=#b85450;" edge="1" parent="WIyWlLk6GJQsqaUBKTNV-1" source="wVOTAozZ5RD-RAOEWzSc-15" target="wVOTAozZ5RD-RAOEWzSc-2">
          <mxGeometry relative="1" as="geometry">
            <mxPoint x="520" y="220" as="sourcePoint" />
          </mxGeometry>
        </mxCell>
        <mxCell id="wVOTAozZ5RD-RAOEWzSc-11" style="edgeStyle=none;rounded=0;orthogonalLoop=1;jettySize=auto;html=1;exitX=0.5;exitY=1;exitDx=0;exitDy=0;entryX=0.5;entryY=0;entryDx=0;entryDy=0;fillColor=#f8cecc;strokeColor=#b85450;" edge="1" parent="WIyWlLk6GJQsqaUBKTNV-1" source="wVOTAozZ5RD-RAOEWzSc-2" target="wVOTAozZ5RD-RAOEWzSc-10">
          <mxGeometry relative="1" as="geometry" />
        </mxCell>
        <mxCell id="wVOTAozZ5RD-RAOEWzSc-2" value="Yes" style="rhombus;whiteSpace=wrap;html=1;fillColor=#f8cecc;strokeColor=#b85450;" vertex="1" parent="WIyWlLk6GJQsqaUBKTNV-1">
          <mxGeometry x="420" y="290" width="80" height="60" as="geometry" />
        </mxCell>
        <mxCell id="wVOTAozZ5RD-RAOEWzSc-13" style="edgeStyle=none;rounded=0;orthogonalLoop=1;jettySize=auto;html=1;exitX=0.5;exitY=1;exitDx=0;exitDy=0;entryX=0.5;entryY=0;entryDx=0;entryDy=0;fillColor=#f8cecc;strokeColor=#b85450;" edge="1" parent="WIyWlLk6GJQsqaUBKTNV-1" source="wVOTAozZ5RD-RAOEWzSc-5" target="wVOTAozZ5RD-RAOEWzSc-12">
          <mxGeometry relative="1" as="geometry" />
        </mxCell>
        <mxCell id="wVOTAozZ5RD-RAOEWzSc-5" value="No" style="rhombus;whiteSpace=wrap;html=1;fillColor=#f8cecc;strokeColor=#b85450;" vertex="1" parent="WIyWlLk6GJQsqaUBKTNV-1">
          <mxGeometry x="570" y="190" width="80" height="60" as="geometry" />
        </mxCell>
        <mxCell id="wVOTAozZ5RD-RAOEWzSc-31" value="" style="edgeStyle=none;rounded=0;orthogonalLoop=1;jettySize=auto;html=1;fillColor=#dae8fc;strokeColor=#6c8ebf;" edge="1" parent="WIyWlLk6GJQsqaUBKTNV-1" source="wVOTAozZ5RD-RAOEWzSc-10" target="wVOTAozZ5RD-RAOEWzSc-25">
          <mxGeometry relative="1" as="geometry" />
        </mxCell>
        <mxCell id="wVOTAozZ5RD-RAOEWzSc-10" value="Login" style="rounded=1;whiteSpace=wrap;html=1;fillColor=#f8cecc;strokeColor=#b85450;" vertex="1" parent="WIyWlLk6GJQsqaUBKTNV-1">
          <mxGeometry x="400" y="385" width="120" height="60" as="geometry" />
        </mxCell>
        <mxCell id="wVOTAozZ5RD-RAOEWzSc-12" value="Register" style="rounded=1;whiteSpace=wrap;html=1;fillColor=#f8cecc;strokeColor=#b85450;" vertex="1" parent="WIyWlLk6GJQsqaUBKTNV-1">
          <mxGeometry x="550" y="280" width="120" height="60" as="geometry" />
        </mxCell>
        <mxCell id="wVOTAozZ5RD-RAOEWzSc-38" style="edgeStyle=none;rounded=0;orthogonalLoop=1;jettySize=auto;html=1;exitX=1;exitY=0.5;exitDx=0;exitDy=0;entryX=0;entryY=0.5;entryDx=0;entryDy=0;fillColor=#f8cecc;strokeColor=#b85450;" edge="1" parent="WIyWlLk6GJQsqaUBKTNV-1" source="wVOTAozZ5RD-RAOEWzSc-15" target="wVOTAozZ5RD-RAOEWzSc-5">
          <mxGeometry relative="1" as="geometry" />
        </mxCell>
        <mxCell id="wVOTAozZ5RD-RAOEWzSc-15" value="Have an account?" style="ellipse;whiteSpace=wrap;html=1;fillColor=#f8cecc;strokeColor=#b85450;" vertex="1" parent="WIyWlLk6GJQsqaUBKTNV-1">
          <mxGeometry x="400" y="185" width="120" height="70" as="geometry" />
        </mxCell>
        <mxCell id="wVOTAozZ5RD-RAOEWzSc-86" style="edgeStyle=none;rounded=0;orthogonalLoop=1;jettySize=auto;html=1;exitX=0;exitY=0.5;exitDx=0;exitDy=0;entryX=1;entryY=0.5;entryDx=0;entryDy=0;fillColor=#f8cecc;strokeColor=#b85450;" edge="1" parent="WIyWlLk6GJQsqaUBKTNV-1" source="wVOTAozZ5RD-RAOEWzSc-19" target="wVOTAozZ5RD-RAOEWzSc-21">
          <mxGeometry relative="1" as="geometry">
            <mxPoint x="290" y="110" as="sourcePoint" />
          </mxGeometry>
        </mxCell>
        <mxCell id="wVOTAozZ5RD-RAOEWzSc-19" value="Scroll&lt;br&gt;Down" style="rhombus;whiteSpace=wrap;html=1;fillColor=#f8cecc;strokeColor=#b85450;" vertex="1" parent="WIyWlLk6GJQsqaUBKTNV-1">
          <mxGeometry x="300" y="80" width="80" height="60" as="geometry" />
        </mxCell>
        <mxCell id="wVOTAozZ5RD-RAOEWzSc-85" value="" style="edgeStyle=none;rounded=0;orthogonalLoop=1;jettySize=auto;html=1;fillColor=#f8cecc;strokeColor=#b85450;" edge="1" parent="WIyWlLk6GJQsqaUBKTNV-1" source="wVOTAozZ5RD-RAOEWzSc-21" target="wVOTAozZ5RD-RAOEWzSc-77">
          <mxGeometry relative="1" as="geometry" />
        </mxCell>
        <mxCell id="wVOTAozZ5RD-RAOEWzSc-21" value="Description Section" style="rounded=1;whiteSpace=wrap;html=1;arcSize=13;fillColor=#f8cecc;strokeColor=#b85450;" vertex="1" parent="WIyWlLk6GJQsqaUBKTNV-1">
          <mxGeometry x="150" y="80" width="120" height="60" as="geometry" />
        </mxCell>
        <mxCell id="wVOTAozZ5RD-RAOEWzSc-63" value="" style="edgeStyle=none;rounded=0;orthogonalLoop=1;jettySize=auto;html=1;exitX=0.5;exitY=1;exitDx=0;exitDy=0;entryX=0.5;entryY=0;entryDx=0;entryDy=0;fillColor=#dae8fc;strokeColor=#6c8ebf;" edge="1" parent="WIyWlLk6GJQsqaUBKTNV-1" source="wVOTAozZ5RD-RAOEWzSc-25" target="wVOTAozZ5RD-RAOEWzSc-44">
          <mxGeometry relative="1" as="geometry" />
        </mxCell>
        <mxCell id="wVOTAozZ5RD-RAOEWzSc-89" style="edgeStyle=none;rounded=0;orthogonalLoop=1;jettySize=auto;html=1;exitX=0;exitY=0.5;exitDx=0;exitDy=0;entryX=1;entryY=0.5;entryDx=0;entryDy=0;fillColor=#dae8fc;strokeColor=#6c8ebf;" edge="1" parent="WIyWlLk6GJQsqaUBKTNV-1" source="wVOTAozZ5RD-RAOEWzSc-25" target="wVOTAozZ5RD-RAOEWzSc-36">
          <mxGeometry relative="1" as="geometry" />
        </mxCell>
        <mxCell id="wVOTAozZ5RD-RAOEWzSc-25" value="User is logged&lt;br&gt;in at this point" style="ellipse;whiteSpace=wrap;html=1;fillColor=#dae8fc;strokeColor=#6c8ebf;" vertex="1" parent="WIyWlLk6GJQsqaUBKTNV-1">
          <mxGeometry x="400" y="480" width="120" height="70" as="geometry" />
        </mxCell>
        <mxCell id="wVOTAozZ5RD-RAOEWzSc-72" style="edgeStyle=none;rounded=0;orthogonalLoop=1;jettySize=auto;html=1;exitX=0;exitY=0.5;exitDx=0;exitDy=0;exitPerimeter=0;entryX=1;entryY=0.5;entryDx=0;entryDy=0;fillColor=#f8cecc;strokeColor=#b85450;" edge="1" parent="WIyWlLk6GJQsqaUBKTNV-1" source="wVOTAozZ5RD-RAOEWzSc-27" target="wVOTAozZ5RD-RAOEWzSc-10">
          <mxGeometry relative="1" as="geometry" />
        </mxCell>
        <mxCell id="wVOTAozZ5RD-RAOEWzSc-27" value="&lt;br&gt;Firebase" style="strokeWidth=2;html=1;shape=mxgraph.flowchart.database;whiteSpace=wrap;fillColor=#f8cecc;strokeColor=#b85450;" vertex="1" parent="WIyWlLk6GJQsqaUBKTNV-1">
          <mxGeometry x="560" y="380" width="100" height="70" as="geometry" />
        </mxCell>
        <mxCell id="wVOTAozZ5RD-RAOEWzSc-28" style="edgeStyle=none;rounded=0;orthogonalLoop=1;jettySize=auto;html=1;exitX=0.5;exitY=1;exitDx=0;exitDy=0;entryX=0.5;entryY=0;entryDx=0;entryDy=0;entryPerimeter=0;fillColor=#f8cecc;strokeColor=#b85450;" edge="1" parent="WIyWlLk6GJQsqaUBKTNV-1" source="wVOTAozZ5RD-RAOEWzSc-12" target="wVOTAozZ5RD-RAOEWzSc-27">
          <mxGeometry relative="1" as="geometry" />
        </mxCell>
        <mxCell id="wVOTAozZ5RD-RAOEWzSc-66" value="" style="edgeStyle=none;rounded=0;orthogonalLoop=1;jettySize=auto;html=1;fillColor=#dae8fc;strokeColor=#6c8ebf;" edge="1" parent="WIyWlLk6GJQsqaUBKTNV-1" source="wVOTAozZ5RD-RAOEWzSc-36" target="wVOTAozZ5RD-RAOEWzSc-65">
          <mxGeometry relative="1" as="geometry" />
        </mxCell>
        <mxCell id="wVOTAozZ5RD-RAOEWzSc-70" value="" style="edgeStyle=none;rounded=0;orthogonalLoop=1;jettySize=auto;html=1;fillColor=#dae8fc;strokeColor=#6c8ebf;" edge="1" parent="WIyWlLk6GJQsqaUBKTNV-1" source="wVOTAozZ5RD-RAOEWzSc-36" target="wVOTAozZ5RD-RAOEWzSc-68">
          <mxGeometry relative="1" as="geometry" />
        </mxCell>
        <mxCell id="wVOTAozZ5RD-RAOEWzSc-36" value="Do you have a &lt;br&gt;linked bot?" style="ellipse;whiteSpace=wrap;html=1;fillColor=#dae8fc;strokeColor=#6c8ebf;" vertex="1" parent="WIyWlLk6GJQsqaUBKTNV-1">
          <mxGeometry x="240" y="480" width="120" height="70" as="geometry" />
        </mxCell>
        <mxCell id="wVOTAozZ5RD-RAOEWzSc-94" style="edgeStyle=none;rounded=0;orthogonalLoop=1;jettySize=auto;html=1;exitX=0.5;exitY=1;exitDx=0;exitDy=0;entryX=0.75;entryY=0;entryDx=0;entryDy=0;" edge="1" parent="WIyWlLk6GJQsqaUBKTNV-1" source="wVOTAozZ5RD-RAOEWzSc-44" target="wVOTAozZ5RD-RAOEWzSc-92">
          <mxGeometry relative="1" as="geometry" />
        </mxCell>
        <mxCell id="wVOTAozZ5RD-RAOEWzSc-95" style="edgeStyle=none;rounded=0;orthogonalLoop=1;jettySize=auto;html=1;exitX=0.5;exitY=1;exitDx=0;exitDy=0;entryX=0.25;entryY=0;entryDx=0;entryDy=0;" edge="1" parent="WIyWlLk6GJQsqaUBKTNV-1" source="wVOTAozZ5RD-RAOEWzSc-44" target="wVOTAozZ5RD-RAOEWzSc-91">
          <mxGeometry relative="1" as="geometry" />
        </mxCell>
        <mxCell id="wVOTAozZ5RD-RAOEWzSc-44" value="Dashboard" style="rounded=1;whiteSpace=wrap;html=1;fillColor=#dae8fc;strokeColor=#6c8ebf;" vertex="1" parent="WIyWlLk6GJQsqaUBKTNV-1">
          <mxGeometry x="400" y="585" width="120" height="60" as="geometry" />
        </mxCell>
        <mxCell id="wVOTAozZ5RD-RAOEWzSc-88" style="edgeStyle=none;rounded=0;orthogonalLoop=1;jettySize=auto;html=1;exitX=1;exitY=0.5;exitDx=0;exitDy=0;entryX=0;entryY=0.5;entryDx=0;entryDy=0;fillColor=#dae8fc;strokeColor=#6c8ebf;" edge="1" parent="WIyWlLk6GJQsqaUBKTNV-1" source="wVOTAozZ5RD-RAOEWzSc-65" target="wVOTAozZ5RD-RAOEWzSc-44">
          <mxGeometry relative="1" as="geometry" />
        </mxCell>
        <mxCell id="wVOTAozZ5RD-RAOEWzSc-65" value="Yes" style="rhombus;whiteSpace=wrap;html=1;fillColor=#dae8fc;strokeColor=#6c8ebf;" vertex="1" parent="WIyWlLk6GJQsqaUBKTNV-1">
          <mxGeometry x="260" y="585" width="80" height="60" as="geometry" />
        </mxCell>
        <mxCell id="wVOTAozZ5RD-RAOEWzSc-87" style="edgeStyle=none;rounded=0;orthogonalLoop=1;jettySize=auto;html=1;exitX=0.5;exitY=0;exitDx=0;exitDy=0;entryX=0.25;entryY=1;entryDx=0;entryDy=0;fillColor=#dae8fc;strokeColor=#6c8ebf;" edge="1" parent="WIyWlLk6GJQsqaUBKTNV-1" source="wVOTAozZ5RD-RAOEWzSc-68" target="wVOTAozZ5RD-RAOEWzSc-79">
          <mxGeometry relative="1" as="geometry" />
        </mxCell>
        <mxCell id="wVOTAozZ5RD-RAOEWzSc-68" value="No" style="rhombus;whiteSpace=wrap;html=1;fillColor=#dae8fc;strokeColor=#6c8ebf;" vertex="1" parent="WIyWlLk6GJQsqaUBKTNV-1">
          <mxGeometry x="140" y="485" width="80" height="60" as="geometry" />
        </mxCell>
        <mxCell id="wVOTAozZ5RD-RAOEWzSc-81" value="" style="edgeStyle=none;rounded=0;orthogonalLoop=1;jettySize=auto;html=1;fillColor=#f8cecc;strokeColor=#b85450;" edge="1" parent="WIyWlLk6GJQsqaUBKTNV-1" source="wVOTAozZ5RD-RAOEWzSc-77" target="wVOTAozZ5RD-RAOEWzSc-79">
          <mxGeometry relative="1" as="geometry" />
        </mxCell>
        <mxCell id="wVOTAozZ5RD-RAOEWzSc-77" value="Scroll&lt;br&gt;Down" style="rhombus;whiteSpace=wrap;html=1;fillColor=#f8cecc;strokeColor=#b85450;" vertex="1" parent="WIyWlLk6GJQsqaUBKTNV-1">
          <mxGeometry x="170" y="160" width="80" height="60" as="geometry" />
        </mxCell>
        <mxCell id="wVOTAozZ5RD-RAOEWzSc-83" style="edgeStyle=none;rounded=0;orthogonalLoop=1;jettySize=auto;html=1;exitX=1;exitY=0.5;exitDx=0;exitDy=0;entryX=0;entryY=0.5;entryDx=0;entryDy=0;fillColor=#f8cecc;strokeColor=#b85450;" edge="1" parent="WIyWlLk6GJQsqaUBKTNV-1" source="wVOTAozZ5RD-RAOEWzSc-79" target="wVOTAozZ5RD-RAOEWzSc-15">
          <mxGeometry relative="1" as="geometry" />
        </mxCell>
        <mxCell id="wVOTAozZ5RD-RAOEWzSc-90" style="edgeStyle=none;rounded=0;orthogonalLoop=1;jettySize=auto;html=1;exitX=0;exitY=0.5;exitDx=0;exitDy=0;entryX=0;entryY=0.5;entryDx=0;entryDy=0;fillColor=#dae8fc;strokeColor=#6c8ebf;" edge="1" parent="WIyWlLk6GJQsqaUBKTNV-1" source="wVOTAozZ5RD-RAOEWzSc-79" target="wVOTAozZ5RD-RAOEWzSc-65">
          <mxGeometry relative="1" as="geometry">
            <mxPoint x="150" y="270" as="sourcePoint" />
            <mxPoint x="260" y="615" as="targetPoint" />
            <Array as="points">
              <mxPoint x="120" y="270" />
              <mxPoint x="120" y="615" />
            </Array>
          </mxGeometry>
        </mxCell>
        <mxCell id="wVOTAozZ5RD-RAOEWzSc-79" value="Setup Instructions" style="rounded=1;whiteSpace=wrap;html=1;arcSize=13;fillColor=#f8cecc;strokeColor=#b85450;" vertex="1" parent="WIyWlLk6GJQsqaUBKTNV-1">
          <mxGeometry x="150" y="240" width="120" height="60" as="geometry" />
        </mxCell>
        <mxCell id="wVOTAozZ5RD-RAOEWzSc-91" value="Wall Music" style="rounded=1;whiteSpace=wrap;html=1;fillColor=#dae8fc;strokeColor=#6c8ebf;" vertex="1" parent="WIyWlLk6GJQsqaUBKTNV-1">
          <mxGeometry x="470" y="710" width="120" height="60" as="geometry" />
        </mxCell>
        <mxCell id="wVOTAozZ5RD-RAOEWzSc-92" value="Wall Intro" style="rounded=1;whiteSpace=wrap;html=1;fillColor=#dae8fc;strokeColor=#6c8ebf;" vertex="1" parent="WIyWlLk6GJQsqaUBKTNV-1">
          <mxGeometry x="330" y="710" width="120" height="60" as="geometry" />
        </mxCell>
      </root>
    </mxGraphModel>
  </diagram>
</mxfile>
